<svg width="122" height="122" viewBox="0 0 122 122" fill="none" xmlns="http://www.w3.org/2000/svg">
<g clip-path="url(#clip0_2_463)">
<path d="M70.8358 121.937L70.7419 108.048C70.7419 96.8695 84.0079 100.928 81.9954 83.535L78.2513 18.5741C78.1281 15.6635 74.6304 15.6094 74.7376 18.5212L74.1681 74.1456C73.8788 78.6784 68.5023 77.928 68.6733 73.1629L67.9823 18.4587C67.9823 15.1943 64.5844 15.8536 64.5527 18.6999L63.6256 74.4977C63.5172 78.0524 58.259 77.7067 58.3691 74.3309L57.5814 18.3696C57.5814 15.8438 54.3431 15.5948 54.2752 18.0694L53.3285 74.5747C53.0759 78.4341 47.8828 77.9149 48.1519 73.7469L47.5016 18.5288C47.5433 15.4111 44.3455 15.5744 44.1981 18.5288L39.96 86.2603C39.8604 100.847 51.1954 96.2371 51.453 108.703L51.4387 122C10.0731 115.607 -13.7098 68.1397 8.49137 30.1877C32.2571 -10.4388 91.052 -9.96463 114.068 31.0388C135.327 68.9122 111.467 115.362 70.8358 121.937Z" fill="black"/>
<path d="M60.8809 103.92C59.2967 103.92 57.7281 103.608 56.2646 103.002C54.801 102.396 53.4712 101.507 52.351 100.387C51.2309 99.2671 50.3423 97.9373 49.7361 96.4737C49.1299 95.0102 48.8179 93.4416 48.8179 91.8574C48.8179 90.2733 49.1299 88.7047 49.7361 87.2411C50.3423 85.7776 51.2309 84.4478 52.351 83.3276C53.4712 82.2074 54.801 81.3189 56.2646 80.7127C57.7281 80.1065 59.2967 79.7944 60.8809 79.7944C64.0802 79.7944 67.1484 81.0654 69.4107 83.3276C71.6729 85.5898 72.9438 88.6581 72.9438 91.8574C72.9438 95.0567 71.6729 98.125 69.4107 100.387C67.1484 102.649 64.0802 103.92 60.8809 103.92Z" stroke="black" stroke-width="2" stroke-linecap="round" stroke-linejoin="round"/>
<path d="M58.2002 89.1768C57.53 87.8364 54.8494 87.8364 54.1792 89.1768M67.5825 89.1768C66.9124 87.8364 64.2317 87.8364 63.5615 89.1768M64.2317 95.8784C63.7949 96.3242 63.2736 96.6784 62.6982 96.9201C62.1228 97.1619 61.505 97.2865 60.8809 97.2865C60.2568 97.2865 59.6389 97.1619 59.0635 96.9201C58.4882 96.6784 57.9668 96.3242 57.53 95.8784" stroke="black" stroke-width="2" stroke-linecap="round" stroke-linejoin="round"/>
</g>
<defs>
<clipPath id="clip0_2_463">
<rect width="122" height="122" fill="white"/>
</clipPath>
</defs>
</svg>
